<svg width="242" height="27" viewBox="0 0 242 27" fill="none" xmlns="http://www.w3.org/2000/svg">
<path d="M0.864 16.856C0.864 14.024 1.788 11.72 3.636 9.944C5.508 8.168 7.908 7.28 10.836 7.28C13.932 7.28 16.344 8.132 18.072 9.836C19.8 11.54 20.664 13.844 20.664 16.748C20.664 17.204 20.628 17.732 20.556 18.332H8.1C8.124 20.636 9.048 21.788 10.872 21.788C12.24 21.788 13.284 20.96 14.004 19.304L20.808 21.176C19.152 24.8 15.84 26.612 10.872 26.612C7.728 26.612 5.268 25.76 3.492 24.056C1.74 22.328 0.864 19.928 0.864 16.856ZM8.208 14.732H13.464C13.44 13.82 13.188 13.112 12.708 12.608C12.252 12.08 11.64 11.816 10.872 11.816C9.24 11.816 8.352 12.788 8.208 14.732ZM22.1251 20.924L28.8931 20.024C29.0371 21.512 29.9851 22.256 31.7371 22.256C33.1771 22.256 33.8971 21.8 33.8971 20.888C33.8971 20.144 33.2371 19.64 31.9171 19.376L29.7211 18.98C27.2731 18.5 25.5331 17.852 24.5011 17.036C23.4691 16.22 22.9531 14.948 22.9531 13.22C22.9531 11.468 23.7091 10.04 25.2211 8.936C26.7571 7.832 28.9171 7.28 31.7011 7.28C34.3411 7.28 36.3811 7.736 37.8211 8.648C39.2851 9.536 40.1851 10.688 40.5211 12.104L33.9331 13.4C33.7651 12.8 33.4411 12.32 32.9611 11.96C32.5051 11.6 31.9531 11.42 31.3051 11.42C30.1051 11.42 29.5051 11.852 29.5051 12.716C29.5051 13.412 30.2611 13.868 31.7731 14.084L34.4011 14.552C38.8891 15.344 41.1331 17.3 41.1331 20.42C41.1331 22.316 40.3051 23.828 38.6491 24.956C37.0171 26.06 34.6651 26.612 31.5931 26.612C28.6651 26.612 26.4211 26.072 24.8611 24.992C23.3251 23.912 22.4131 22.556 22.1251 20.924ZM45.0894 20.384V12.752H41.5974V7.892H45.0894V2.384H52.3614V7.892H56.3574V12.752H52.3614V19.34C52.3614 20.18 52.7814 20.6 53.6214 20.6H57.2574V26H50.6694C48.8694 26 47.4894 25.52 46.5294 24.56C45.5694 23.576 45.0894 22.184 45.0894 20.384ZM59.38 20.024V7.892H66.868V18.692C66.868 19.484 67.048 20.096 67.408 20.528C67.768 20.936 68.26 21.14 68.884 21.14C69.58 21.14 70.12 20.852 70.504 20.276C70.912 19.7 71.116 18.932 71.116 17.972V7.892H78.532V26H71.368V23.408C70.792 24.344 69.988 25.112 68.956 25.712C67.924 26.312 66.724 26.612 65.356 26.612C63.652 26.612 62.224 26.036 61.072 24.884C59.944 23.708 59.38 22.088 59.38 20.024ZM81.1617 16.928C81.1617 14.048 81.8697 11.72 83.2857 9.944C84.7017 8.168 86.5737 7.28 88.9017 7.28C90.0777 7.28 91.1577 7.544 92.1417 8.072C93.1257 8.6 93.9057 9.308 94.4817 10.196V7.604V0.799998H101.79V26H94.5177V23.66C93.1737 25.628 91.3017 26.612 88.9017 26.612C86.5257 26.612 84.6417 25.736 83.2497 23.984C81.8577 22.208 81.1617 19.856 81.1617 16.928ZM94.6257 16.928C94.6257 15.368 94.3737 14.192 93.8697 13.4C93.3657 12.584 92.6577 12.176 91.7457 12.176C89.8017 12.176 88.8297 13.76 88.8297 16.928C88.8297 18.488 89.0817 19.676 89.5857 20.492C90.1137 21.308 90.8337 21.716 91.7457 21.716C92.6337 21.716 93.3297 21.308 93.8337 20.492C94.3617 19.652 94.6257 18.464 94.6257 16.928ZM105.155 5.84V0.079999H112.787V5.84H105.155ZM105.227 26V7.892H112.751V26H105.227ZM115.262 16.964C115.262 14.036 116.222 11.696 118.142 9.944C120.086 8.168 122.63 7.28 125.774 7.28C128.99 7.28 131.558 8.156 133.478 9.908C135.422 11.66 136.394 14.012 136.394 16.964C136.394 19.916 135.422 22.268 133.478 24.02C131.558 25.748 128.99 26.612 125.774 26.612C122.63 26.612 120.086 25.736 118.142 23.984C116.222 22.208 115.262 19.868 115.262 16.964ZM128.582 16.928C128.582 13.808 127.658 12.248 125.81 12.248C124.01 12.248 123.11 13.808 123.11 16.928C123.11 20.072 124.01 21.644 125.81 21.644C127.658 21.644 128.582 20.072 128.582 16.928ZM137.719 20.924L144.487 20.024C144.631 21.512 145.579 22.256 147.331 22.256C148.771 22.256 149.491 21.8 149.491 20.888C149.491 20.144 148.831 19.64 147.511 19.376L145.315 18.98C142.867 18.5 141.127 17.852 140.095 17.036C139.063 16.22 138.547 14.948 138.547 13.22C138.547 11.468 139.303 10.04 140.815 8.936C142.351 7.832 144.511 7.28 147.295 7.28C149.935 7.28 151.975 7.736 153.415 8.648C154.879 9.536 155.779 10.688 156.115 12.104L149.527 13.4C149.359 12.8 149.035 12.32 148.555 11.96C148.099 11.6 147.547 11.42 146.899 11.42C145.699 11.42 145.099 11.852 145.099 12.716C145.099 13.412 145.855 13.868 147.367 14.084L149.995 14.552C154.483 15.344 156.727 17.3 156.727 20.42C156.727 22.316 155.899 23.828 154.243 24.956C152.611 26.06 150.259 26.612 147.187 26.612C144.259 26.612 142.015 26.072 140.455 24.992C138.919 23.912 138.007 22.556 137.719 20.924ZM161.372 26L156.8 7.892H163.928L164.72 12.032C165.152 13.976 165.68 16.724 166.304 20.276C166.808 17.132 167.276 14.54 167.708 12.5L168.644 7.892H176.348L177.284 12.464C177.74 14.912 178.208 17.468 178.688 20.132C179.072 17.66 179.612 14.924 180.308 11.924L181.1 7.892H188.012L183.476 26H174.728L173.54 20.564C173.132 18.716 172.7 16.484 172.244 13.868C171.98 15.332 171.536 17.576 170.912 20.6L169.76 26H161.372ZM188.422 16.964C188.422 14.036 189.382 11.696 191.302 9.944C193.246 8.168 195.79 7.28 198.934 7.28C202.15 7.28 204.718 8.156 206.638 9.908C208.582 11.66 209.554 14.012 209.554 16.964C209.554 19.916 208.582 22.268 206.638 24.02C204.718 25.748 202.15 26.612 198.934 26.612C195.79 26.612 193.246 25.736 191.302 23.984C189.382 22.208 188.422 19.868 188.422 16.964ZM201.742 16.928C201.742 13.808 200.818 12.248 198.97 12.248C197.17 12.248 196.27 13.808 196.27 16.928C196.27 20.072 197.17 21.644 198.97 21.644C200.818 21.644 201.742 20.072 201.742 16.928ZM214.529 26L209.957 7.892H217.085L217.877 12.032C218.309 13.976 218.837 16.724 219.461 20.276C219.965 17.132 220.433 14.54 220.865 12.5L221.801 7.892H229.505L230.441 12.464C230.897 14.912 231.365 17.468 231.845 20.132C232.229 17.66 232.769 14.924 233.465 11.924L234.257 7.892H241.169L236.633 26H227.885L226.697 20.564C226.289 18.716 225.857 16.484 225.401 13.868C225.137 15.332 224.693 17.576 224.069 20.6L222.917 26H214.529Z" fill="white"/>
</svg>
