<svg xmlns="http://www.w3.org/2000/svg" viewBox="0 0 363.57 363.57"><defs><style>.cls-1{fill:#fff;}.cls-2{fill:#1d1d1b;}</style></defs><title>Recurso 23</title><g id="Capa_2" data-name="Capa 2"><g id="Capa_1-2" data-name="Capa 1"><rect class="cls-1" width="363.57" height="363.57" rx="78.02"/><path class="cls-2" d="M135,199.43a13.25,13.25,0,1,0,13.25,13.25A13.25,13.25,0,0,0,135,199.43Z"/><path class="cls-2" d="M228.58,199.43a13.25,13.25,0,1,0,13.25,13.25A13.25,13.25,0,0,0,228.58,199.43Z"/><path class="cls-2" d="M327.62,69.91V56.48a2.11,2.11,0,0,0-2.64-2,203.18,203.18,0,0,0-79.82,42,106.5,106.5,0,0,0-126.85.09,204.73,204.73,0,0,0-79.7-42,2.11,2.11,0,0,0-2.65,2V69.93a2.08,2.08,0,0,0,1.5,2,187.39,187.39,0,0,1,67.82,36,106.65,106.65,0,0,0,67.94,180.7v21a2.1,2.1,0,0,0,2.09,2.09h13a2.1,2.1,0,0,0,2.09-2.09v-21a106.64,106.64,0,0,0,67.77-180.87A189.17,189.17,0,0,1,309.81,77.4c5.35-2.1,10.8-3.91,16.3-5.49A2.07,2.07,0,0,0,327.62,69.91ZM173.22,271.42a89.54,89.54,0,0,1-55.27-152,187.43,187.43,0,0,1,35.93,50s14.21,28.8,18,60.36c1,8.48,1.28,17.14,1.28,17.14.07,2.3.08,4.19.08,5.46Zm8.57-77.8a205.09,205.09,0,0,0-50.67-85.23,89.37,89.37,0,0,1,101.26-.07,207,207,0,0,0-22.59,27.18A203.46,203.46,0,0,0,181.79,193.62Zm89.61-11.39a89.73,89.73,0,0,1-81,89.19V252.36c0-1.2,0-3.11.1-5.46,0,0,.28-8.77,1.24-17.14,5.31-46.12,31.95-84.59,31.95-84.59a186.08,186.08,0,0,1,21.76-26A89.3,89.3,0,0,1,271.4,182.23Z"/></g></g></svg>