<svg xmlns="http://www.w3.org/2000/svg" xmlns:xlink="http://www.w3.org/1999/xlink" viewBox="0 0 182.88 252.26"><defs><style>.cls-1{fill:#1d1d1b;}.cls-2{fill:url(#Espectro_);}</style><linearGradient id="Espectro_" x1="18.21" y1="233.33" x2="164.98" y2="233.33" gradientUnits="userSpaceOnUse"><stop offset="0" stop-color="#00a0db"/><stop offset="0.2" stop-color="#362983"/><stop offset="0.4" stop-color="#e4007d"/><stop offset="0.6" stop-color="#e31f21"/><stop offset="0.8" stop-color="#ffe900"/><stop offset="1" stop-color="#009447"/></linearGradient></defs><title>Recurso 22</title><g id="Capa_2" data-name="Capa 2"><g id="Capa_1-2" data-name="Capa 1"><path class="cls-1" d="M62.1,91a8.31,8.31,0,1,0,8.31,8.31A8.31,8.31,0,0,0,62.1,91Z"/><path class="cls-1" d="M120.79,91a8.31,8.31,0,1,0,8.3,8.31A8.31,8.31,0,0,0,120.79,91Z"/><path class="cls-1" d="M182.88,9.75V1.33A1.31,1.31,0,0,0,181.23.05,126.75,126.75,0,0,0,167.8,4.43a128.2,128.2,0,0,0-36.62,21.92,66.78,66.78,0,0,0-79.54,0A128.34,128.34,0,0,0,1.66.05,1.32,1.32,0,0,0,0,1.33V9.76A1.31,1.31,0,0,0,.94,11,117.61,117.61,0,0,1,43.47,33.57a66.87,66.87,0,0,0,42.6,113.31v13.18a1.31,1.31,0,0,0,1.31,1.31h8.13a1.31,1.31,0,0,0,1.31-1.31V146.87a66.87,66.87,0,0,0,42.5-113.41,118.53,118.53,0,0,1,32.4-19q5-2,10.22-3.44A1.3,1.3,0,0,0,182.88,9.75ZM86.07,136.1A56.15,56.15,0,0,1,51.41,40.8,117.4,117.4,0,0,1,73.94,72.13S82.85,90.19,85.22,110c.63,5.31.8,10.75.8,10.75,0,1.44,0,2.62,0,3.42Zm5.37-48.78A128.56,128.56,0,0,0,59.67,33.87a56,56,0,0,1,63.5,0,130.72,130.72,0,0,0-14.17,17A127.92,127.92,0,0,0,91.44,87.32Zm56.19-7.14A56.26,56.26,0,0,1,96.82,136.1V124.15c0-.75,0-2,.07-3.42,0,0,.17-5.51.77-10.75,3.34-28.92,20-53,20-53a116.38,116.38,0,0,1,13.64-16.28A56,56,0,0,1,147.63,80.18Z"/><polygon class="cls-1" points="62.03 208.42 71.73 172.13 62.1 172.13 55.89 198.58 55.61 198.58 48.42 172.13 39.63 172.13 32.44 198.58 32.16 198.58 25.95 172.13 16.32 172.13 26.02 208.42 37.46 208.42 44.02 185.67 50.66 208.42 62.03 208.42"/><path class="cls-1" d="M91.62,171.43c-9.14,0-18.22,5.65-18.22,18.84s9.08,18.85,18.22,18.85,18.22-5.66,18.22-18.85S100.76,171.43,91.62,171.43Zm0,29.24c-4.89,0-8.65-3.21-8.65-10.4s3.76-10.4,8.65-10.4,8.65,3.21,8.65,10.4S96.51,200.67,91.62,200.67Z"/><polygon class="cls-1" points="151.08 198.58 150.8 198.58 143.61 172.13 134.82 172.13 127.63 198.58 127.35 198.58 121.14 172.13 111.51 172.13 121.21 208.42 132.66 208.42 139.22 185.67 145.85 208.42 157.22 208.42 166.92 172.13 157.29 172.13 151.08 198.58"/><path class="cls-2" d="M40.06,229.37a11,11,0,0,0-9.71-5.06c-6.25,0-12.14,4.29-12.14,13.95S24.1,252.2,30.35,252.2c4,0,7.74-1.7,9.71-5.06v4.55h3.66V215.53H40.06ZM31,249.1c-4.76,0-9.25-3.46-9.25-10.84s4.49-10.85,9.25-10.85,9.29,3.46,9.29,10.85S35.67,249.1,31,249.1Zm18.79-24.27h3.67v26.86H49.76Zm4.24-8a2.4,2.4,0,0,1-2.38,2.37,2.38,2.38,0,1,1,0-4.75A2.41,2.41,0,0,1,54,216.83Zm25.67,27.42c0,5.89-5.32,7.95-10.75,7.95-5.94,0-10.69-2.48-11-7.95h3.36c.52,3.77,4.13,5.06,7.7,5.06s7-1.45,7-5c0-2.79-2-3.67-5-4.44l-5.06-1.19c-4.7-1.13-7-3.41-7-7,0-4.7,4-7.34,9.87-7.34,5.68,0,9.76,2.48,10.12,7.8h-3.1c-.67-3.66-3.31-4.9-7-4.9-4,0-6.41,1.55-6.41,4.33,0,2.07,1.35,3.52,4.75,4.34l5,1.14C76.57,238.1,79.67,239.7,79.67,244.25Zm15.59-19.94c-6.82,0-12.45,4.29-12.45,14.05,0,9.4,5.27,13.9,12.71,13.9,5,0,9.45-2,11.26-7.91h-3.36c-1.39,3.88-4.49,5-7.75,5-5.73,0-9-3.3-9.29-10H107a7.79,7.79,0,0,0,.16-1.86C107.14,228.7,102.13,224.31,95.26,224.31Zm-8.83,12.35c.31-6.35,3.92-9.4,8.78-9.4,5.11,0,8.31,3.3,8.42,9.4Zm30.42-17.51h-2.22c0-3.2,1.91-4.75,4.38-4.75,3.77,0,5.22,3.72,8.16,3.72a2.32,2.32,0,0,0,2.43-2.53h2.22c0,3.2-1.91,4.8-4.39,4.8-3.77,0-5.21-3.77-8.16-3.77A2.33,2.33,0,0,0,116.85,219.15Zm17.76,16v16.53h-3.67V235.88c0-5.27-2.16-8.42-7.23-8.42s-8.21,3.15-8.21,8.42v15.81h-3.66V224.83h3.66v5c.57-1.76,3.31-5.53,9.45-5.53C130.27,224.31,134.61,227.15,134.61,235.16Zm17.56-10.85c-6.66,0-12.86,4.45-12.86,13.95s6.2,13.94,12.86,13.94S165,247.76,165,238.26,158.78,224.31,152.17,224.31Zm0,24.79c-4.85,0-9.3-3.35-9.3-10.84s4.45-10.85,9.3-10.85,9.3,3.36,9.3,10.85S157,249.1,152.17,249.1Z"/></g></g></svg>