<svg xmlns="http://www.w3.org/2000/svg" viewBox="0 0 118.4 104.47"><defs><style>.cls-1{fill:#1d1d1b;}</style></defs><title>Recurso 24</title><g id="Capa_2" data-name="Capa 2"><g id="Capa_1-2" data-name="Capa 1"><path class="cls-1" d="M40.2,58.89a5.38,5.38,0,1,0,5.38,5.38A5.38,5.38,0,0,0,40.2,58.89Z"/><path class="cls-1" d="M78.2,58.89a5.38,5.38,0,1,0,5.38,5.38A5.38,5.38,0,0,0,78.2,58.89Z"/><path class="cls-1" d="M118.4,6.31V.86A.86.86,0,0,0,117.33,0a81.62,81.62,0,0,0-8.69,2.84A82.8,82.8,0,0,0,84.93,17.06a43.23,43.23,0,0,0-51.5,0A83.15,83.15,0,0,0,1.08,0,.86.86,0,0,0,0,.86V6.32a.85.85,0,0,0,.61.81,76.14,76.14,0,0,1,27.53,14.6A43.3,43.3,0,0,0,55.72,95.09v8.53a.85.85,0,0,0,.85.85h5.26a.85.85,0,0,0,.85-.85V95.09A43.29,43.29,0,0,0,90.19,21.66a77,77,0,0,1,21-12.31q3.26-1.28,6.62-2.23A.84.84,0,0,0,118.4,6.31ZM55.72,88.11A36.35,36.35,0,0,1,33.28,26.42,75.86,75.86,0,0,1,47.87,46.7a86.11,86.11,0,0,1,7.3,24.5c.41,3.44.52,7,.52,7,0,.93,0,1.7,0,2.21ZM59.2,56.53a83.26,83.26,0,0,0-20.57-34.6,36.28,36.28,0,0,1,41.11,0,84,84,0,0,0-9.17,11A82.55,82.55,0,0,0,59.2,56.53Zm36.38-4.62a36.43,36.43,0,0,1-32.9,36.2V80.37c0-.48,0-1.26,0-2.21,0,0,.12-3.56.51-7,2.15-18.72,13-34.34,13-34.34A75.76,75.76,0,0,1,85,26.32,36.25,36.25,0,0,1,95.58,51.91Z"/></g></g></svg>